<svg width="67" height="20" viewBox="0 0 67 20" fill="none" xmlns="http://www.w3.org/2000/svg">
<g clip-path="url(#clip0_3230_12987)">
<path d="M63.7441 10.8189V7.14161H60.6794V4.73358H63.7441V1.44824H66.8833V10.8189H63.7441ZM60.7537 1.76558V4.13624H57.9676V5.87224L59.4535 7.98161H61.1252V10.4083H57.819L56.4073 8.39228L54.9957 10.4083H51.6895V7.98161H53.3611L54.8471 5.87224V4.13624H52.0238V1.76558H60.7537ZM63.7441 11.8681H66.8833V17.8749L60.4194 19.3123L53.9555 17.8749V11.8681H57.0946V12.8163H63.7441V11.8681ZM60.4194 16.7736L63.7441 16.0269V15.0189H57.0946V16.0269L60.4194 16.7736Z" fill="#E5E8FA"/>
<path d="M40.6206 9.36294V4.13624H37.9831V9.36294H40.6206ZM34.9369 1.76558H43.6668V11.7336H34.9369V1.76558ZM46.6572 13.6749V9.99761H44.2983V7.58961H46.6572V5.90958H44.2983V3.50158H46.6572V1.44824H49.7963V13.6749H46.6572ZM36.8686 13.1896H40.1005V16.0269L43.351 16.7549L49.7963 15.3176V17.8749L43.351 19.3123L36.8686 17.9123V13.1896Z" fill="#E5E8FA"/>
<path d="M24.3691 12.9096V5.68557L23.5147 4.71491H21.8987L21.0443 5.68557V12.9096L21.8987 13.8803H23.5147L24.3691 12.9096ZM27.4896 4.86424V13.7309L25.2607 16.3443H20.1899L17.9238 13.7309V4.86424L20.2085 2.25091H25.2792L27.4896 4.86424ZM29.1798 18.8829V1.44824H32.3189V18.8829H29.1798Z" fill="#E5E8FA"/>
<path d="M11.5195 0.0070772L16.1035 3.60669C16.1285 3.62633 16.1144 3.66693 16.0827 3.66658L14.5727 3.63989V10.0539H16.5971V12.5175H14.5727V19.5461C14.5727 19.6015 14.5094 19.6327 14.4658 19.5989L11.4593 17.261C11.4431 17.2483 11.4334 17.2289 11.4334 17.2083V3.5852H11.4314L11.4334 3.38403V3.29679L11.4658 0.0331189C11.4661 0.00558969 11.4979 -0.00989933 11.5195 0.0070772ZM9.47307 9.13927V14.0481L7.41106 16.4374H2.58156L0.464486 14.0481V9.13927L2.58156 6.74993H7.41106L9.47307 9.13927ZM3.45482 10.0539V13.1334L4.30929 14.067H5.62825L6.48272 13.1334V10.0539L5.62825 9.12033H4.30929L3.45482 10.0539ZM6.46393 3.48299H9.95567V5.94718H0V3.48299H3.49174V1.69132H6.46393V3.48299Z" fill="#E5E8FA"/>
</g>
<defs>
<clipPath id="clip0_3230_12987">
<rect width="67" height="20" fill="white"/>
</clipPath>
</defs>
</svg>
