<svg width="24" height="24" viewBox="0 0 24 24" fill="none" xmlns="http://www.w3.org/2000/svg">
<path d="M15.4772 12.8899L16.9922 21.4159C17.0092 21.5163 16.9951 21.6195 16.9519 21.7116C16.9086 21.8038 16.8382 21.8806 16.7502 21.9317C16.6621 21.9828 16.5605 22.0058 16.459 21.9976C16.3576 21.9894 16.261 21.9504 16.1822 21.8859L12.6022 19.1989C12.4294 19.0698 12.2195 19 12.0037 19C11.788 19 11.5781 19.0698 11.4052 19.1989L7.81924 21.8849C7.74056 21.9493 7.6441 21.9882 7.54273 21.9964C7.44137 22.0046 7.33991 21.9817 7.2519 21.9308C7.16389 21.8798 7.09352 21.8032 7.05016 21.7112C7.0068 21.6192 6.99253 21.5162 7.00924 21.4159L8.52324 12.8899" stroke="black" stroke-width="2" stroke-linecap="round" stroke-linejoin="round"/>
<path d="M12 14C15.3137 14 18 11.3137 18 8C18 4.68629 15.3137 2 12 2C8.68629 2 6 4.68629 6 8C6 11.3137 8.68629 14 12 14Z" stroke="black" stroke-width="2" stroke-linecap="round" stroke-linejoin="round"/>
</svg>
