<svg width="24" height="24" viewBox="0 0 24 24" fill="none" xmlns="http://www.w3.org/2000/svg">
<path d="M11 13V17M15 5V9M3 3V19C3 19.5304 3.21071 20.0391 3.58579 20.4142C3.96086 20.7893 4.46957 21 5 21H21" stroke="black" stroke-width="2" stroke-linecap="round" stroke-linejoin="round"/>
<path d="M15 13H8C7.44772 13 7 13.4477 7 14V16C7 16.5523 7.44772 17 8 17H15C15.5523 17 16 16.5523 16 16V14C16 13.4477 15.5523 13 15 13Z" stroke="black" stroke-width="2" stroke-linecap="round" stroke-linejoin="round"/>
<path d="M18 5H8C7.44772 5 7 5.44772 7 6V8C7 8.55228 7.44772 9 8 9H18C18.5523 9 19 8.55228 19 8V6C19 5.44772 18.5523 5 18 5Z" stroke="black" stroke-width="2" stroke-linecap="round" stroke-linejoin="round"/>
</svg>
