<svg width="24" height="24" viewBox="0 0 24 24" fill="none" xmlns="http://www.w3.org/2000/svg">
<path d="M12 6V12L16 14" stroke="black" stroke-width="2" stroke-linecap="round" stroke-linejoin="round"/>
<path d="M22 11.9999C22 10.0647 21.4385 8.17111 20.3835 6.54875C19.3286 4.92639 17.8257 3.64497 16.0569 2.85989C14.2881 2.07481 12.3295 1.81981 10.4187 2.12582C8.50789 2.43182 6.7269 3.28569 5.29175 4.58385C3.8566 5.88201 2.82894 7.5687 2.33341 9.43935C1.83787 11.31 1.89576 13.2843 2.50005 15.1227C3.10434 16.9611 4.22906 18.5846 5.73781 19.7965C7.24657 21.0083 9.07453 21.7564 11 21.9499" stroke="black" stroke-width="2" stroke-linecap="round" stroke-linejoin="round"/>
<path d="M22 16L16.5 21.5L14 19" stroke="black" stroke-width="2" stroke-linecap="round" stroke-linejoin="round"/>
</svg>
