<svg width="48" height="48" viewBox="0 0 48 48" fill="none" xmlns="http://www.w3.org/2000/svg">
<path d="M24 44C35.0457 44 44 35.0457 44 24C44 12.9543 35.0457 4 24 4C12.9543 4 4 12.9543 4 24C4 35.0457 12.9543 44 24 44Z" fill="#5A5CF5"/>
<path d="M22.102 15.2322C22.2341 14.8268 22.4923 14.4743 22.8389 14.2261C23.1855 13.9778 23.6023 13.8468 24.0286 13.8522C24.4549 13.8576 24.8683 13.999 25.2086 14.2559C25.5488 14.5128 25.7981 14.8716 25.92 15.2802L27.394 18.1842C27.5374 18.4665 27.7458 18.7107 28.0021 18.8967C28.2583 19.0827 28.5551 19.2052 28.868 19.2542L32.136 19.7662C32.5568 19.7678 32.9664 19.9021 33.3064 20.1501C33.6464 20.398 33.8996 20.7468 34.0299 21.147C34.1602 21.5471 34.1609 21.9782 34.032 22.3788C33.9031 22.7793 33.6512 23.1291 33.312 23.3782L30.968 25.7142C30.7436 25.9376 30.5754 26.2111 30.4773 26.5122C30.3793 26.8133 30.3541 27.1334 30.404 27.4462L30.922 30.6722C31.0645 31.0765 31.0733 31.5159 30.9471 31.9257C30.8209 32.3354 30.5664 32.6937 30.2211 32.9478C29.8758 33.2019 29.458 33.3383 29.0293 33.337C28.6006 33.3356 28.1836 33.1965 27.84 32.9402L24.91 31.4402C24.6277 31.2955 24.3151 31.2201 23.998 31.2201C23.6808 31.2201 23.3682 31.2955 23.086 31.4402L20.156 32.9402C19.8123 33.1943 19.3963 33.3318 18.9689 33.3322C18.5414 33.3327 18.1251 33.1963 17.7809 32.9429C17.4367 32.6894 17.1827 32.3324 17.0562 31.9241C16.9297 31.5159 16.9373 31.0778 17.078 30.6742L17.594 27.4482C17.6441 27.1351 17.6191 26.8146 17.5211 26.5131C17.423 26.2117 17.2547 25.9378 17.03 25.7142L14.718 23.4102C14.3673 23.1672 14.1035 22.8185 13.9651 22.4149C13.8267 22.0114 13.821 21.5741 13.9488 21.1671C14.0765 20.7601 14.3311 20.4046 14.6753 20.1525C15.0196 19.9005 15.4353 19.7651 15.862 19.7662L19.128 19.2542C19.4408 19.2052 19.7376 19.0827 19.9938 18.8967C20.2501 18.7107 20.4585 18.4665 20.602 18.1842L22.102 15.2322Z" fill="#F6D811"/>
</svg>
