<svg width="24" height="24" viewBox="0 0 24 24" fill="none" xmlns="http://www.w3.org/2000/svg">
<path d="M12 19V22M15 9.34V5C14.9959 4.32637 14.7653 3.67371 14.3452 3.14712C13.925 2.62053 13.3399 2.25067 12.684 2.09708C12.0281 1.9435 11.3396 2.01514 10.7294 2.30047C10.1191 2.58579 9.62271 3.0682 9.32 3.67M16.95 16.95C15.971 17.9291 14.7237 18.5958 13.3658 18.866C12.0078 19.1361 10.6003 18.9975 9.32115 18.4676C8.042 17.9378 6.94872 17.0405 6.17955 15.8893C5.41039 14.738 4.9999 13.3845 5 12V10M18.89 13.23C18.9628 12.824 18.9996 12.4124 19 12V10M2 2L22 22" stroke="black" stroke-width="2" stroke-linecap="round" stroke-linejoin="round"/>
<path d="M9 9V12C9.00052 12.593 9.17675 13.1725 9.50643 13.6653C9.83611 14.1582 10.3045 14.5423 10.8523 14.7691C11.4002 14.996 12.0029 15.0554 12.5845 14.9399C13.1661 14.8243 13.7005 14.539 14.12 14.12" stroke="black" stroke-width="2" stroke-linecap="round" stroke-linejoin="round"/>
</svg>
