<svg width="24" height="24" viewBox="0 0 24 24" fill="none" xmlns="http://www.w3.org/2000/svg">
<path d="M12.9999 20.9999H20.9999M14.9999 4.99989L18.9999 8.99989M21.1739 6.81189C21.4357 6.55017 21.6434 6.23944 21.7851 5.89746C21.9268 5.55547 21.9998 5.18893 21.9998 4.81875C21.9999 4.44857 21.927 4.082 21.7854 3.73998C21.6438 3.39796 21.4362 3.08718 21.1744 2.82539C20.9127 2.5636 20.602 2.35593 20.26 2.21422C19.918 2.07252 19.5515 1.99956 19.1813 1.99951C18.8111 1.99947 18.4445 2.07233 18.1025 2.21395C17.7605 2.35557 17.4497 2.56317 17.1879 2.82489L3.84193 16.1739C3.60975 16.4054 3.43805 16.6904 3.34193 17.0039L2.02093 21.3559C1.99509 21.4424 1.99314 21.5342 2.01529 21.6217C2.03743 21.7092 2.08285 21.7891 2.14673 21.8529C2.21061 21.9167 2.29055 21.962 2.37809 21.984C2.46563 22.006 2.55749 22.0039 2.64393 21.9779L6.99693 20.6579C7.3101 20.5626 7.59511 20.392 7.82693 20.1609L21.1739 6.81189Z" stroke="black" stroke-width="2" stroke-linecap="round" stroke-linejoin="round"/>
</svg>
