<svg width="24" height="24" viewBox="0 0 24 24" fill="none" xmlns="http://www.w3.org/2000/svg">
<path d="M13.9998 7L16.9998 10M4.9998 6V10M18.9998 14V18M9.9998 2V4M6.9998 8H2.9998M20.9998 16H16.9998M10.9998 3H8.9998M21.6398 3.64L20.3598 2.36C20.2473 2.24632 20.1133 2.15607 19.9657 2.09448C19.8181 2.03289 19.6598 2.00118 19.4998 2.00118C19.3399 2.00118 19.1815 2.03289 19.0339 2.09448C18.8863 2.15607 18.7523 2.24632 18.6398 2.36L2.3598 18.64C2.24612 18.7525 2.15587 18.8865 2.09428 19.0341C2.03269 19.1817 2.00098 19.3401 2.00098 19.5C2.00098 19.6599 2.03269 19.8183 2.09428 19.9659C2.15587 20.1135 2.24612 20.2475 2.3598 20.36L3.6398 21.64C3.75162 21.7549 3.88534 21.8462 4.03305 21.9086C4.18076 21.971 4.33947 22.0031 4.4998 22.0031C4.66014 22.0031 4.81885 21.971 4.96656 21.9086C5.11427 21.8462 5.24798 21.7549 5.3598 21.64L21.6398 5.36C21.7547 5.24818 21.846 5.11447 21.9084 4.96676C21.9708 4.81905 22.0029 4.66034 22.0029 4.5C22.0029 4.33966 21.9708 4.18095 21.9084 4.03324C21.846 3.88553 21.7547 3.75182 21.6398 3.64Z" stroke="black" stroke-width="2" stroke-linecap="round" stroke-linejoin="round"/>
</svg>
